<svg width="31" height="30" viewBox="0 0 31 30" fill="none" xmlns="http://www.w3.org/2000/svg">
<circle cx="15.5" cy="15" r="14.5" stroke="black"/>
<path d="M25 15C25 19.0572 23.9028 22.7077 22.155 25.3293C20.405 27.9543 18.0422 29.5 15.5 29.5C12.9578 29.5 10.595 27.9543 8.84496 25.3293C7.09724 22.7077 6 19.0572 6 15C6 10.9428 7.09724 7.29233 8.84496 4.67075C10.595 2.04567 12.9578 0.5 15.5 0.5C18.0422 0.5 20.405 2.04567 22.155 4.67075C23.9028 7.29233 25 10.9428 25 15Z" stroke="black"/>
<path d="M20 15C20 19.1033 19.4449 22.7975 18.5612 25.4485C18.1185 26.7766 17.6024 27.8153 17.0535 28.5117C16.5002 29.2138 15.9715 29.5 15.5 29.5C15.0285 29.5 14.4998 29.2138 13.9465 28.5117C13.3976 27.8153 12.8815 26.7766 12.4388 25.4485C11.5551 22.7975 11 19.1033 11 15C11 10.8967 11.5551 7.20252 12.4388 4.55151C12.8815 3.2234 13.3976 2.18468 13.9465 1.48826C14.4998 0.786206 15.0285 0.5 15.5 0.5C15.9715 0.5 16.5002 0.786206 17.0535 1.48826C17.6024 2.18468 18.1185 3.2234 18.5612 4.55151C19.4449 7.20252 20 10.8967 20 15Z" stroke="black"/>
<line x1="0.5" y1="14.5" x2="30.5" y2="14.5" stroke="black"/>
<line x1="3.90234" y1="5.82617" x2="27.0974" y2="5.82617" stroke="black"/>
<line x1="3.50195" y1="23.1758" x2="27.4995" y2="23.1758" stroke="black"/>
</svg>
